<mxfile modified="2021-09-15T03:22:34.080Z" host="app.diagrams.net" agent="5.0 (Macintosh; Intel Mac OS X 10_14_6) AppleWebKit/537.36 (KHTML, like Gecko) Chrome/92.0.4515.159 Safari/537.36" etag="YiEdLAqLAOG8-4N5Gu7s" version="15.1.4" type="github">
  <diagram id="Ht1M8jgEwFfnCIfOTk4-" name="Page-1">
    <mxGraphModel dx="1186" dy="613" grid="1" gridSize="10" guides="1" tooltips="1" connect="1" arrows="1" fold="1" page="1" pageScale="1" pageWidth="1169" pageHeight="827" math="0" shadow="0">
      <root>
        <mxCell id="0" />
        <mxCell id="1" parent="0" />
        <mxCell id="e9RYPE7gmIMcIL6Fkuq9-77" value="" style="shape=table;html=1;whiteSpace=wrap;startSize=0;container=1;collapsible=0;childLayout=tableLayout;" vertex="1" parent="1">
          <mxGeometry x="47.5" y="294" width="1562.5" height="526" as="geometry" />
        </mxCell>
        <mxCell id="e9RYPE7gmIMcIL6Fkuq9-90" style="shape=partialRectangle;html=1;whiteSpace=wrap;collapsible=0;dropTarget=0;pointerEvents=0;fillColor=none;top=0;left=0;bottom=0;right=0;points=[[0,0.5],[1,0.5]];portConstraint=eastwest;" vertex="1" parent="e9RYPE7gmIMcIL6Fkuq9-77">
          <mxGeometry width="1562.5" height="32" as="geometry" />
        </mxCell>
        <mxCell id="e9RYPE7gmIMcIL6Fkuq9-91" value="Sources" style="shape=partialRectangle;html=1;whiteSpace=wrap;connectable=0;fillColor=none;top=0;left=0;bottom=0;right=0;overflow=hidden;pointerEvents=1;" vertex="1" parent="e9RYPE7gmIMcIL6Fkuq9-90">
          <mxGeometry width="154" height="32" as="geometry" />
        </mxCell>
        <mxCell id="e9RYPE7gmIMcIL6Fkuq9-92" value="Preprocessing" style="shape=partialRectangle;html=1;whiteSpace=wrap;connectable=0;fillColor=none;top=0;left=0;bottom=0;right=0;overflow=hidden;pointerEvents=1;" vertex="1" parent="e9RYPE7gmIMcIL6Fkuq9-90">
          <mxGeometry x="154" width="678" height="32" as="geometry" />
        </mxCell>
        <mxCell id="e9RYPE7gmIMcIL6Fkuq9-93" value="Modeling" style="shape=partialRectangle;html=1;whiteSpace=wrap;connectable=0;fillColor=none;top=0;left=0;bottom=0;right=0;overflow=hidden;pointerEvents=1;" vertex="1" parent="e9RYPE7gmIMcIL6Fkuq9-90">
          <mxGeometry x="832" width="273" height="32" as="geometry" />
        </mxCell>
        <mxCell id="e9RYPE7gmIMcIL6Fkuq9-94" value="Deploying" style="shape=partialRectangle;html=1;whiteSpace=wrap;connectable=0;fillColor=none;top=0;left=0;bottom=0;right=0;overflow=hidden;pointerEvents=1;" vertex="1" parent="e9RYPE7gmIMcIL6Fkuq9-90">
          <mxGeometry x="1105" width="263" height="32" as="geometry" />
        </mxCell>
        <mxCell id="e9RYPE7gmIMcIL6Fkuq9-96" value="Serving" style="shape=partialRectangle;html=1;whiteSpace=wrap;connectable=0;fillColor=none;top=0;left=0;bottom=0;right=0;overflow=hidden;pointerEvents=1;" vertex="1" parent="e9RYPE7gmIMcIL6Fkuq9-90">
          <mxGeometry x="1368" width="195" height="32" as="geometry" />
        </mxCell>
        <mxCell id="e9RYPE7gmIMcIL6Fkuq9-78" value="" style="shape=partialRectangle;html=1;whiteSpace=wrap;collapsible=0;dropTarget=0;pointerEvents=0;fillColor=none;top=0;left=0;bottom=0;right=0;points=[[0,0.5],[1,0.5]];portConstraint=eastwest;" vertex="1" parent="e9RYPE7gmIMcIL6Fkuq9-77">
          <mxGeometry y="32" width="1562.5" height="494" as="geometry" />
        </mxCell>
        <mxCell id="e9RYPE7gmIMcIL6Fkuq9-79" value="" style="shape=partialRectangle;html=1;whiteSpace=wrap;connectable=0;fillColor=none;top=0;left=0;bottom=0;right=0;overflow=hidden;pointerEvents=1;" vertex="1" parent="e9RYPE7gmIMcIL6Fkuq9-78">
          <mxGeometry width="154" height="494" as="geometry" />
        </mxCell>
        <mxCell id="e9RYPE7gmIMcIL6Fkuq9-80" value="" style="shape=partialRectangle;html=1;whiteSpace=wrap;connectable=0;fillColor=none;top=0;left=0;bottom=0;right=0;overflow=hidden;pointerEvents=1;" vertex="1" parent="e9RYPE7gmIMcIL6Fkuq9-78">
          <mxGeometry x="154" width="678" height="494" as="geometry" />
        </mxCell>
        <mxCell id="e9RYPE7gmIMcIL6Fkuq9-81" value="" style="shape=partialRectangle;html=1;whiteSpace=wrap;connectable=0;fillColor=none;top=0;left=0;bottom=0;right=0;overflow=hidden;pointerEvents=1;" vertex="1" parent="e9RYPE7gmIMcIL6Fkuq9-78">
          <mxGeometry x="832" width="273" height="494" as="geometry" />
        </mxCell>
        <mxCell id="e9RYPE7gmIMcIL6Fkuq9-95" style="shape=partialRectangle;html=1;whiteSpace=wrap;connectable=0;fillColor=none;top=0;left=0;bottom=0;right=0;overflow=hidden;pointerEvents=1;" vertex="1" parent="e9RYPE7gmIMcIL6Fkuq9-78">
          <mxGeometry x="1105" width="263" height="494" as="geometry" />
        </mxCell>
        <mxCell id="e9RYPE7gmIMcIL6Fkuq9-97" style="shape=partialRectangle;html=1;whiteSpace=wrap;connectable=0;fillColor=none;top=0;left=0;bottom=0;right=0;overflow=hidden;pointerEvents=1;" vertex="1" parent="e9RYPE7gmIMcIL6Fkuq9-78">
          <mxGeometry x="1368" width="195" height="494" as="geometry" />
        </mxCell>
        <mxCell id="e9RYPE7gmIMcIL6Fkuq9-10" value="ETL Jobs" style="rounded=0;whiteSpace=wrap;html=1;" vertex="1" parent="1">
          <mxGeometry x="240" y="514" width="150" height="170" as="geometry" />
        </mxCell>
        <mxCell id="e9RYPE7gmIMcIL6Fkuq9-2" value="S3" style="sketch=0;outlineConnect=0;fontColor=#232F3E;gradientColor=none;fillColor=#6CAE3E;strokeColor=none;dashed=0;verticalLabelPosition=bottom;verticalAlign=top;align=center;html=1;fontSize=12;fontStyle=0;aspect=fixed;pointerEvents=1;shape=mxgraph.aws4.bucket_with_objects;" vertex="1" parent="1">
          <mxGeometry x="100" y="560" width="75" height="78" as="geometry" />
        </mxCell>
        <mxCell id="e9RYPE7gmIMcIL6Fkuq9-3" value="ClickHouse" style="shape=image;verticalLabelPosition=bottom;labelBackgroundColor=#ffffff;verticalAlign=top;aspect=fixed;imageAspect=0;image=https://clickhouse.tech/images/logo.svg;" vertex="1" parent="1">
          <mxGeometry x="450" y="560" width="87.75" height="78" as="geometry" />
        </mxCell>
        <mxCell id="e9RYPE7gmIMcIL6Fkuq9-4" value="" style="edgeStyle=orthogonalEdgeStyle;rounded=0;orthogonalLoop=1;jettySize=auto;html=1;endArrow=open;endFill=0;strokeWidth=2;" edge="1" parent="1" source="e9RYPE7gmIMcIL6Fkuq9-2" target="e9RYPE7gmIMcIL6Fkuq9-10">
          <mxGeometry relative="1" as="geometry">
            <mxPoint x="277.99" y="480" as="sourcePoint" />
            <mxPoint x="240" y="598" as="targetPoint" />
          </mxGeometry>
        </mxCell>
        <mxCell id="e9RYPE7gmIMcIL6Fkuq9-5" value="Order &amp;amp; Rider Related Object" style="outlineConnect=0;fontColor=#232F3E;gradientColor=none;fillColor=#277116;strokeColor=none;dashed=0;verticalLabelPosition=bottom;verticalAlign=top;align=center;html=1;fontSize=12;fontStyle=0;aspect=fixed;pointerEvents=1;shape=mxgraph.aws4.object;labelBackgroundColor=#ffffff;" vertex="1" parent="1">
          <mxGeometry x="118.5" y="388" width="38" height="38" as="geometry" />
        </mxCell>
        <mxCell id="e9RYPE7gmIMcIL6Fkuq9-6" value="" style="edgeStyle=orthogonalEdgeStyle;rounded=0;orthogonalLoop=1;jettySize=auto;html=1;endArrow=open;endFill=0;strokeWidth=2;" edge="1" parent="1" source="e9RYPE7gmIMcIL6Fkuq9-5" target="e9RYPE7gmIMcIL6Fkuq9-2">
          <mxGeometry relative="1" as="geometry">
            <mxPoint x="184.9917274384684" y="609" as="sourcePoint" />
            <mxPoint x="330" y="609" as="targetPoint" />
          </mxGeometry>
        </mxCell>
        <mxCell id="e9RYPE7gmIMcIL6Fkuq9-8" value="upload periodically" style="edgeLabel;html=1;align=center;verticalAlign=middle;resizable=0;points=[];" vertex="1" connectable="0" parent="e9RYPE7gmIMcIL6Fkuq9-6">
          <mxGeometry x="0.0909" y="1" relative="1" as="geometry">
            <mxPoint as="offset" />
          </mxGeometry>
        </mxCell>
        <mxCell id="e9RYPE7gmIMcIL6Fkuq9-9" value="Load Inputs" style="rounded=1;whiteSpace=wrap;html=1;gradientColor=#b3b3b3;fillColor=#f5f5f5;strokeColor=#666666;" vertex="1" parent="1">
          <mxGeometry x="260" y="554" width="110" height="30" as="geometry" />
        </mxCell>
        <mxCell id="e9RYPE7gmIMcIL6Fkuq9-11" value="Preprocess Inputs" style="rounded=1;whiteSpace=wrap;html=1;gradientColor=#b3b3b3;fillColor=#f5f5f5;strokeColor=#666666;" vertex="1" parent="1">
          <mxGeometry x="260" y="594" width="110" height="30" as="geometry" />
        </mxCell>
        <mxCell id="e9RYPE7gmIMcIL6Fkuq9-12" value="Save Results" style="rounded=1;whiteSpace=wrap;html=1;gradientColor=#b3b3b3;fillColor=#f5f5f5;strokeColor=#666666;" vertex="1" parent="1">
          <mxGeometry x="260" y="641" width="110" height="30" as="geometry" />
        </mxCell>
        <mxCell id="e9RYPE7gmIMcIL6Fkuq9-13" value="ETL Jobs" style="text;html=1;strokeColor=none;fillColor=none;align=center;verticalAlign=middle;whiteSpace=wrap;rounded=0;" vertex="1" parent="1">
          <mxGeometry x="290" y="524" width="55" height="20" as="geometry" />
        </mxCell>
        <mxCell id="e9RYPE7gmIMcIL6Fkuq9-16" value="" style="edgeStyle=orthogonalEdgeStyle;rounded=0;orthogonalLoop=1;jettySize=auto;html=1;endArrow=open;endFill=0;strokeWidth=2;exitX=1;exitY=0.5;exitDx=0;exitDy=0;" edge="1" parent="1" source="e9RYPE7gmIMcIL6Fkuq9-10" target="e9RYPE7gmIMcIL6Fkuq9-3">
          <mxGeometry relative="1" as="geometry">
            <mxPoint x="184.9917274384684" y="609" as="sourcePoint" />
            <mxPoint x="430" y="720" as="targetPoint" />
          </mxGeometry>
        </mxCell>
        <mxCell id="e9RYPE7gmIMcIL6Fkuq9-17" value="ingest" style="edgeLabel;html=1;align=center;verticalAlign=middle;resizable=0;points=[];" vertex="1" connectable="0" parent="e9RYPE7gmIMcIL6Fkuq9-16">
          <mxGeometry x="-0.1" y="1" relative="1" as="geometry">
            <mxPoint as="offset" />
          </mxGeometry>
        </mxCell>
        <mxCell id="e9RYPE7gmIMcIL6Fkuq9-19" value="Argo" style="shape=image;verticalLabelPosition=bottom;labelBackgroundColor=#ffffff;verticalAlign=top;imageAspect=0;image=https://argoproj.github.io/argo-workflows/assets/logo.png;aspect=fixed;" vertex="1" parent="1">
          <mxGeometry x="450" y="190" width="75" height="78" as="geometry" />
        </mxCell>
        <mxCell id="e9RYPE7gmIMcIL6Fkuq9-20" value="" style="curved=1;endArrow=classic;html=1;entryX=0.467;entryY=0.035;entryDx=0;entryDy=0;entryPerimeter=0;strokeWidth=2;" edge="1" parent="1" source="e9RYPE7gmIMcIL6Fkuq9-19" target="e9RYPE7gmIMcIL6Fkuq9-10">
          <mxGeometry width="50" height="50" relative="1" as="geometry">
            <mxPoint x="320" y="440" as="sourcePoint" />
            <mxPoint x="370" y="390" as="targetPoint" />
            <Array as="points">
              <mxPoint x="390" y="330" />
              <mxPoint x="330" y="410" />
            </Array>
          </mxGeometry>
        </mxCell>
        <mxCell id="e9RYPE7gmIMcIL6Fkuq9-21" value="Scheudle" style="edgeLabel;html=1;align=center;verticalAlign=middle;resizable=0;points=[];" vertex="1" connectable="0" parent="e9RYPE7gmIMcIL6Fkuq9-20">
          <mxGeometry x="0.0632" y="4" relative="1" as="geometry">
            <mxPoint as="offset" />
          </mxGeometry>
        </mxCell>
        <mxCell id="e9RYPE7gmIMcIL6Fkuq9-23" value="ETL Jobs" style="rounded=0;whiteSpace=wrap;html=1;" vertex="1" parent="1">
          <mxGeometry x="610" y="514" width="150" height="170" as="geometry" />
        </mxCell>
        <mxCell id="e9RYPE7gmIMcIL6Fkuq9-24" value="Load Inputs" style="rounded=1;whiteSpace=wrap;html=1;gradientColor=#b3b3b3;fillColor=#f5f5f5;strokeColor=#666666;" vertex="1" parent="1">
          <mxGeometry x="630" y="554" width="110" height="30" as="geometry" />
        </mxCell>
        <mxCell id="e9RYPE7gmIMcIL6Fkuq9-25" value="Aggregate Inputs" style="rounded=1;whiteSpace=wrap;html=1;gradientColor=#b3b3b3;fillColor=#f5f5f5;strokeColor=#666666;" vertex="1" parent="1">
          <mxGeometry x="630" y="594" width="110" height="30" as="geometry" />
        </mxCell>
        <mxCell id="e9RYPE7gmIMcIL6Fkuq9-26" value="Save Results" style="rounded=1;whiteSpace=wrap;html=1;gradientColor=#b3b3b3;fillColor=#f5f5f5;strokeColor=#666666;" vertex="1" parent="1">
          <mxGeometry x="630" y="641" width="110" height="30" as="geometry" />
        </mxCell>
        <mxCell id="e9RYPE7gmIMcIL6Fkuq9-27" value="Tagging Jobs" style="text;html=1;strokeColor=none;fillColor=none;align=center;verticalAlign=middle;whiteSpace=wrap;rounded=0;" vertex="1" parent="1">
          <mxGeometry x="635" y="524" width="100" height="20" as="geometry" />
        </mxCell>
        <mxCell id="e9RYPE7gmIMcIL6Fkuq9-28" value="" style="edgeStyle=orthogonalEdgeStyle;rounded=0;orthogonalLoop=1;jettySize=auto;html=1;endArrow=open;endFill=0;strokeWidth=2;exitX=0;exitY=0.5;exitDx=0;exitDy=0;" edge="1" parent="1" source="e9RYPE7gmIMcIL6Fkuq9-23" target="e9RYPE7gmIMcIL6Fkuq9-3">
          <mxGeometry relative="1" as="geometry">
            <mxPoint x="400" y="609" as="sourcePoint" />
            <mxPoint x="460" y="609" as="targetPoint" />
          </mxGeometry>
        </mxCell>
        <mxCell id="e9RYPE7gmIMcIL6Fkuq9-29" value="tagging" style="edgeLabel;html=1;align=center;verticalAlign=middle;resizable=0;points=[];" vertex="1" connectable="0" parent="e9RYPE7gmIMcIL6Fkuq9-28">
          <mxGeometry x="-0.1" y="1" relative="1" as="geometry">
            <mxPoint as="offset" />
          </mxGeometry>
        </mxCell>
        <mxCell id="e9RYPE7gmIMcIL6Fkuq9-32" value="" style="curved=1;endArrow=classic;html=1;entryX=0.5;entryY=0;entryDx=0;entryDy=0;strokeWidth=2;" edge="1" parent="1" source="e9RYPE7gmIMcIL6Fkuq9-19" target="e9RYPE7gmIMcIL6Fkuq9-23">
          <mxGeometry width="50" height="50" relative="1" as="geometry">
            <mxPoint x="684.95" y="307.7274193548387" as="sourcePoint" />
            <mxPoint x="585" y="514" as="targetPoint" />
            <Array as="points">
              <mxPoint x="660" y="390" />
            </Array>
          </mxGeometry>
        </mxCell>
        <mxCell id="e9RYPE7gmIMcIL6Fkuq9-33" value="Scheudle" style="edgeLabel;html=1;align=center;verticalAlign=middle;resizable=0;points=[];" vertex="1" connectable="0" parent="e9RYPE7gmIMcIL6Fkuq9-32">
          <mxGeometry x="0.0632" y="4" relative="1" as="geometry">
            <mxPoint as="offset" />
          </mxGeometry>
        </mxCell>
        <mxCell id="e9RYPE7gmIMcIL6Fkuq9-34" value="OnlineStore" style="sketch=0;aspect=fixed;html=1;points=[];align=center;image;fontSize=12;image=img/lib/mscae/Cache_Redis_Product.svg;" vertex="1" parent="1">
          <mxGeometry x="1476" y="390" width="78" height="65.52" as="geometry" />
        </mxCell>
        <mxCell id="e9RYPE7gmIMcIL6Fkuq9-35" value="" style="edgeStyle=orthogonalEdgeStyle;rounded=0;orthogonalLoop=1;jettySize=auto;html=1;endArrow=open;endFill=0;strokeWidth=2;" edge="1" parent="1" source="e9RYPE7gmIMcIL6Fkuq9-3" target="e9RYPE7gmIMcIL6Fkuq9-34">
          <mxGeometry relative="1" as="geometry">
            <mxPoint x="510" y="760" as="sourcePoint" />
            <mxPoint x="250" y="609" as="targetPoint" />
            <Array as="points">
              <mxPoint x="487" y="420" />
            </Array>
          </mxGeometry>
        </mxCell>
        <mxCell id="e9RYPE7gmIMcIL6Fkuq9-36" value="Sync latest data periodically&amp;nbsp;" style="edgeLabel;html=1;align=center;verticalAlign=middle;resizable=0;points=[];" vertex="1" connectable="0" parent="e9RYPE7gmIMcIL6Fkuq9-35">
          <mxGeometry x="0.2797" y="-2" relative="1" as="geometry">
            <mxPoint as="offset" />
          </mxGeometry>
        </mxCell>
        <mxCell id="e9RYPE7gmIMcIL6Fkuq9-37" value="" style="shape=image;verticalLabelPosition=bottom;labelBackgroundColor=#ffffff;verticalAlign=top;aspect=fixed;imageAspect=0;image=data:image/png,iVBORw0KGgoAAAANSUhEUgAAAJIAAACSCAYAAACue5OOAAANOElEQVR4Ae1dC1PiShO9//8PfbX32727irqAIm8QEBQfiCAKKD4At2+djsGomQS9zKxbdVI1RYyQnPScdHp60id/iYjMZnMZjm7k4nKkbXA1EpsNx+kPhjIaT2Q6nQHCm+VhOpPh2D2m8fVEprP5GzzYcP8wXWCyaR9/356dRjK+vpXZPBzT3cNUrp76zv+dzU9gwv7HN7cyf3xc2OkvrAFortyURLogm9tF2dopWW8/fuakVGvJ5fB6ASa4gu258r6sJ/OyuW0fD877+1ZWKvUDJXgQi7/eG4wkW/IwubARMK0nc1JptOV6cufDePHZ7V9KtlRXO7nAtJEuysZ2Uar7R3J7/7DAsiBSvtzULwDMz0zZatvaKctaMiflOCJV9iWRKiip7WMqCchdqR8aidQfjDxyA5NlG+F8cQElknmpRhDpXInUUDvZtpGHqai49vaP5C6USBV3RAKgtWReyrWDSI+U/6REArnddFpJEqnPRqQSiRTV+fDEy3okEqkk9EiGWxKJtFw4g9stGolEIv2n2zKJZCCQf7ujR6JH+k9XGIm0HIF8O9Ej0SOt5IIjkUgkEslNkpTDf//2FfVJj0SPRI9Ej2Sea3M/RcI8UuQVyeH/cqM33tp4a4u8kKLiouD/SCQSiURijMQYyXgV8DGS+JgEtxE+RhJzKyGRSCSjlwkGZXHrJBKJRCLxCUk+j2TylMwjxXtI2I7D/5iYjUQikVZyqyWRSCQSqeSyHIlzbZGEo0eiR4okiCm4fr2dRFoVkZxW2pZk7ecfXmm7s5zhXxP2PX9jhISS9c9Zadt+W2k7HE9kJ1eTfzZ3tf4dhYK225e1HcmWGypIsCggD6wMrsayna/J10RGfmxlreNB3f+XH9uC6t6rUbgeQbd/JencnnzdyFjHA/t/38zK/9d3pFBtqmhDwDyL1dPuhaSyVfm67gbTP5tZQSvtteT27n6BQ2v/UcN93OnL/uGJNNun0mp3rLd661hghMntM5gFKhHdDkyN1ol1LDjf5uGp1JrH0jkfyO3dszhCENP1za0cd3rSOHCHqdE6lrPzgSqhBLH466PriRyd9gTfc9FvsBPaWe9SprNnJRkl0uPjo7opdCoamGaz4Rg3t3dyfz+V+fxZGsU3Dj4hmQKC37jG9DB9IdcSxARpGWByaacJ7PQwlcfHX0Eoi/VnTHdW+8zng3/uwPTr1zMmJdICFVdogQ9agET6oOH4s5cWIJFe2oN/fdACJNIHDcefvbSAEgkhEwJuBLjO2vxRA8hgwBaEhu2Kaf47MAWRPK8T01NfPPXds2VElEgQBIXAZLc3EGgSIl9iu512B4JcEaL/sAXbIXyJ4TiGmrbx4BhIR0C7EkKoYQtGbD4m23iwf2DC+V8Nr40CqRhNXQw8O7nCBFzItQVH3EokKJQWKk3ZfNKPTO5WxGZDdnc9FS39B6D5alMgfonv28SDfeMYeGozTkMyX96XhGKyayNggtYm1OH2Gm25MYiRokAyV26onWzbyMPkCcPWqCEZPrXxJ8+15Tj7TzHSqLk3VpHEPI3o30aoahvuHX1ykUgk0koebSGRSCQSCUGn71ptfrKuLfq2BtvTI9EjreRiJJFIJBKJt7b4l9rwFRJU/jd6ij85IZllQpIJyagBDWMkxkhGzxdFnNf/I5FIJBKJwTaD7deeMfg3vCQaX7Nl8JYMtuMTpCAUiWQgkH+1kUgk0kriERKJRCKRmEdiHsm/tYZ9cvgfE4/AaJz9j7+VkEgk0kputyQSiUQiMSHJhGRYvOZvYx4pxkty+B8fs4FMJBKJtLLbLcjEKRIDoeiRVuCRIB+X01LkgmxuFwVGtdnA6O9bOdUhvByOw8rstQYfmCDGie/bxIN947yhI4lau+H4JhRTfzAUPESG1AXK221jQrk6RFtRRn49uQ3FhDr83WJd7WQbD/YPTGjV/bbc3j9LJGrtPwynIpuJzEKQFEa12b78SEu2VFdRhjALQawhnavK32s7Kn5pEwv2DSHW/31PCcqfIdoQtkCkAcKfEAi1jQf7/7axK3+veQKpuNjDFhUj3a3o99xgysi3jYwUqi2ZvBYjhfIHVC8OT7rSPjmXo1O7Dcc4ODoTCCBATSNsgSCoYjp2h6l11JHz/pXc3YcrpED30i2mrtqpd3FlVEiBQGqnO9Dv2e437N/nCLzzbDZfdJ16JAhdgkxwVZBucdFAoIcpRDbDxUixXTHducGDc/YwzYzCn9COcokJ/bHAFBD+XPQeRFvnvwHT/YMSO6htpUQKAuM6LfARC5BIH7Eaf/PGAiTSG5Nww0csQCJ9xGr8zRsLLIjkCW1CANRtM8SQqir/OzDhmFGYXNsHxwsGta97EFg/AyYl0sPDVIfieKcF3v/hoiEF0LsY6gjxtXHwN0ZRSA/gey7w4Bg4Foa1GJmFLXh9QrfnElNPUzHIqZkEUqEtiaSku74DR3qa/3sz/Fcx0mpTM7XJTFlSuxWrDaKWqJ+v1A+MbyKCGCneCrSZLkoyYxcPzhfnDYHUauNQTMk/dGi+0pSN7aKKo9q2EyZJN9IF2WuaxUiRY8IbnZCZt40H+/efAqi3jl44AfVI4+tbyVWakki7mSJBqh2vkSrVWjoVEnb1Q6Y4V3E/RRKlatsbjCSLaZtU3vr0CGwEcqwnc0u8r83xFMl28XNM2m4tHrWNJhKuNHguGNW/Emx9+uSOIlJ/MNI5yfVUwToenCfmGBOf7sV/LJCM7Pz3EImyNnyMxEgmEmkFj5EgRvKDSBe3EbhtVpHEd5ze2nQA0JbrCOV/6iPVWNcWFfORSIanEINGo0eiRzLGGUGixK2TSCQSieRy+M8YKfqKo0eKtg88OmMkxkgr8dokEolEIjGPxJLtqIESvCQaCyQN3pKZ7fiYzY/bSCQDiWAgEolEWkk8QiKRSCQSNSQ51xYX2CaYkIx2lUxIRtvHD2xJpIjAFkYikUiklcQkJBKJRCJx0pYJSVNwy+F/vIf04zYmJCPiNhKJRFrJrZZEIpFIpM+SkESJMioRUEGKaluUJFtt6aLqQharTTGLkY5lt9TQilwVwLSMCecNHcnSXssoRgqtAgh/okrYCaZUQX5AILV+IJD4C1tQ958p1jxMlm0ETqA4FA2l7ZBn9Bct2R6NJ7JbgIGymt/xv2ztM1lQQUtU0g6uwlVtsT1TqGnnQtnWGpYnwyAd8TWxIyD3cBSuaos6ew9TVtaTnkFt4oKirU9u6DOELdC03MnveXZ6OhebmHARrSVzUq6HEAlKFzDSyVlf22m3L7YbhC2h/AHVkbAF24EJyhfAZRsPjuFjMqmRQM8RYqXAZBsP9g9Mx6ee8sd0Ogszk0AgFaotLjEBFy702fyVGCn0dwAUBoTEDURCrbaHqR5rOpsbhT+h+TOd/SZMBoEkCKT+DjtBPsakkQSB1AUm2/2G/T9x5DWmhdBWKN25kRZY0gIk0pKG4teiLUAiRduH/13SAiTSkobi16ItsCCSJ8LpCV+6WH9U0c9fkehc4Ageg5je1//BzlMi3d9P5eTsQlrtjr7TAu8Jsd32D070vR4Q+Axb8MIUDDObh6fWseBc8R6SxsGJCnuaUhKQlnGKqd3R8+/2L40CqeObiYq1OrNTu6M8QcoBo2p/USIh2VWstuRnpiTJ3bKkshWrTcVI0xAjPYwXI/WFP11gShVkr9GOFCMtVJpa12XbRti/zrani7LXPBKo14Ytz2KkJat95p+v//SEQYx0Ivnyviqounhfmz9BiukI8xTJtafXmHQn/InXVC3zvjZkjnEOtpsvRhr1vjbINeN1Zcj+28aD/ftTZ3th72ujYhvr2nxPE/fJStuIZ5FgPFxtmEdaRtWWYqQs2TY+ckIi8XkkIzni3HTw/yQSiUQifZYH2xhsM0YKeueodQbbDLZX4rlJJBKJREIgHOVuV/E/BtsMtldCMhKJRCKROGqjPlLUbRmBLWVtYoJbqpHE30pIpBgS4SokkUiklcQkJBKJRCJRH4n6SKbglsP/eA8J2zGzHRO3kUgk0kputSQSiUQiMSHJhKQpZvPjESYkY2ISDv/jbyVMSMaQCFcbiUQirSQmIZFIJBKJCcnwhCTESHeLDdUGRBVpIl2021LQkNyVQjVaQxLCn6h+RR2ZbUw4728bGSlCjNSoITmUTMEhpmRevkMgtWYWI+32BqprqXay3W/pooYkuJug/u+NGCke/vdq2ouytQOXi7pzm235GGkjXZAtjbls4qnoeUNks1qPfqctStuhgOuNtmxjwmMkUJBtCwQswpZu/0py5YaW29vtM+9cN3dKglZrHr3Q/1QRCYiR9gcj6XQvVCEEkru2mydoOTKqbEDPEmKlp90LOesNrOOBOqwvsgn9zLAFV2BvMHrCZN9GwNTpesKfQeWPIDaouUC22bOTI0znA9VsCBUjnc8fVaUU/3TSZnOBkCb0icIWbCemuUD0cyk7zRz12xM/FFOg4xZCW4FtXKUF3m0BEundJuMPwixAIoVZhdvebYF/ASKVxgGgUD4+AAAAAElFTkSuQmCC;" vertex="1" parent="1">
          <mxGeometry x="820" y="560" width="78" height="78" as="geometry" />
        </mxCell>
        <mxCell id="e9RYPE7gmIMcIL6Fkuq9-39" value="" style="rounded=0;whiteSpace=wrap;html=1;" vertex="1" parent="1">
          <mxGeometry x="943" y="514" width="150" height="296" as="geometry" />
        </mxCell>
        <mxCell id="e9RYPE7gmIMcIL6Fkuq9-40" value="Load Inputs" style="rounded=1;whiteSpace=wrap;html=1;gradientColor=#b3b3b3;fillColor=#f5f5f5;strokeColor=#666666;" vertex="1" parent="1">
          <mxGeometry x="963" y="554" width="110" height="30" as="geometry" />
        </mxCell>
        <mxCell id="e9RYPE7gmIMcIL6Fkuq9-41" value="Train Model" style="rounded=1;whiteSpace=wrap;html=1;gradientColor=#b3b3b3;fillColor=#f5f5f5;strokeColor=#666666;" vertex="1" parent="1">
          <mxGeometry x="963" y="594" width="110" height="30" as="geometry" />
        </mxCell>
        <mxCell id="e9RYPE7gmIMcIL6Fkuq9-42" value="Save Model" style="rounded=1;whiteSpace=wrap;html=1;gradientColor=#b3b3b3;fillColor=#f5f5f5;strokeColor=#666666;" vertex="1" parent="1">
          <mxGeometry x="963" y="641" width="110" height="30" as="geometry" />
        </mxCell>
        <mxCell id="e9RYPE7gmIMcIL6Fkuq9-43" value="Training" style="text;html=1;strokeColor=none;fillColor=none;align=center;verticalAlign=middle;whiteSpace=wrap;rounded=0;" vertex="1" parent="1">
          <mxGeometry x="968" y="524" width="100" height="20" as="geometry" />
        </mxCell>
        <mxCell id="e9RYPE7gmIMcIL6Fkuq9-45" value="" style="edgeStyle=orthogonalEdgeStyle;rounded=0;orthogonalLoop=1;jettySize=auto;html=1;endArrow=open;endFill=0;strokeWidth=2;entryX=0;entryY=0.5;entryDx=0;entryDy=0;" edge="1" parent="1" target="e9RYPE7gmIMcIL6Fkuq9-37">
          <mxGeometry relative="1" as="geometry">
            <mxPoint x="510" y="640" as="sourcePoint" />
            <mxPoint x="730" y="803" as="targetPoint" />
            <Array as="points">
              <mxPoint x="510" y="730" />
              <mxPoint x="800" y="730" />
              <mxPoint x="800" y="599" />
            </Array>
          </mxGeometry>
        </mxCell>
        <mxCell id="e9RYPE7gmIMcIL6Fkuq9-47" value="Generate data frames" style="edgeLabel;html=1;align=center;verticalAlign=middle;resizable=0;points=[];" vertex="1" connectable="0" parent="e9RYPE7gmIMcIL6Fkuq9-45">
          <mxGeometry x="-0.0108" y="-3" relative="1" as="geometry">
            <mxPoint as="offset" />
          </mxGeometry>
        </mxCell>
        <mxCell id="e9RYPE7gmIMcIL6Fkuq9-48" value="" style="edgeStyle=orthogonalEdgeStyle;rounded=0;orthogonalLoop=1;jettySize=auto;html=1;endArrow=open;endFill=0;strokeWidth=2;exitX=1;exitY=0.5;exitDx=0;exitDy=0;entryX=0;entryY=0.287;entryDx=0;entryDy=0;entryPerimeter=0;" edge="1" parent="1" source="e9RYPE7gmIMcIL6Fkuq9-37" target="e9RYPE7gmIMcIL6Fkuq9-39">
          <mxGeometry relative="1" as="geometry">
            <mxPoint x="310" y="850" as="sourcePoint" />
            <mxPoint x="950" y="602" as="targetPoint" />
          </mxGeometry>
        </mxCell>
        <mxCell id="e9RYPE7gmIMcIL6Fkuq9-50" value="" style="rounded=0;whiteSpace=wrap;html=1;" vertex="1" parent="1">
          <mxGeometry x="1196" y="820" width="150" height="220" as="geometry" />
        </mxCell>
        <mxCell id="e9RYPE7gmIMcIL6Fkuq9-51" value="Load Inputs" style="rounded=1;whiteSpace=wrap;html=1;gradientColor=#b3b3b3;fillColor=#f5f5f5;strokeColor=#666666;" vertex="1" parent="1">
          <mxGeometry x="1216" y="860" width="110" height="30" as="geometry" />
        </mxCell>
        <mxCell id="e9RYPE7gmIMcIL6Fkuq9-52" value="Generate Orders" style="rounded=1;whiteSpace=wrap;html=1;gradientColor=#b3b3b3;fillColor=#f5f5f5;strokeColor=#666666;" vertex="1" parent="1">
          <mxGeometry x="1216" y="900" width="110" height="30" as="geometry" />
        </mxCell>
        <mxCell id="e9RYPE7gmIMcIL6Fkuq9-53" value="Simulate Rider Status" style="rounded=1;whiteSpace=wrap;html=1;gradientColor=#b3b3b3;fillColor=#f5f5f5;strokeColor=#666666;" vertex="1" parent="1">
          <mxGeometry x="1216" y="947" width="110" height="30" as="geometry" />
        </mxCell>
        <mxCell id="e9RYPE7gmIMcIL6Fkuq9-54" value="Simulation System" style="text;html=1;strokeColor=none;fillColor=none;align=center;verticalAlign=middle;whiteSpace=wrap;rounded=0;" vertex="1" parent="1">
          <mxGeometry x="1212" y="830" width="118" height="20" as="geometry" />
        </mxCell>
        <mxCell id="e9RYPE7gmIMcIL6Fkuq9-55" value="Evaluate Performance" style="rounded=1;whiteSpace=wrap;html=1;gradientColor=#b3b3b3;fillColor=#f5f5f5;strokeColor=#666666;" vertex="1" parent="1">
          <mxGeometry x="1216" y="990" width="110" height="30" as="geometry" />
        </mxCell>
        <mxCell id="e9RYPE7gmIMcIL6Fkuq9-56" value="ETL Jobs" style="rounded=0;whiteSpace=wrap;html=1;" vertex="1" parent="1">
          <mxGeometry x="1196" y="514" width="150" height="170" as="geometry" />
        </mxCell>
        <mxCell id="e9RYPE7gmIMcIL6Fkuq9-57" value="Load Model Info" style="rounded=1;whiteSpace=wrap;html=1;gradientColor=#b3b3b3;fillColor=#f5f5f5;strokeColor=#666666;" vertex="1" parent="1">
          <mxGeometry x="1216" y="554" width="110" height="30" as="geometry" />
        </mxCell>
        <mxCell id="e9RYPE7gmIMcIL6Fkuq9-58" value="Pull Docker Image" style="rounded=1;whiteSpace=wrap;html=1;gradientColor=#b3b3b3;fillColor=#f5f5f5;strokeColor=#666666;" vertex="1" parent="1">
          <mxGeometry x="1216" y="594" width="110" height="30" as="geometry" />
        </mxCell>
        <mxCell id="e9RYPE7gmIMcIL6Fkuq9-59" value="Deploy Serving Infra" style="rounded=1;whiteSpace=wrap;html=1;gradientColor=#b3b3b3;fillColor=#f5f5f5;strokeColor=#666666;" vertex="1" parent="1">
          <mxGeometry x="1216" y="641" width="110" height="30" as="geometry" />
        </mxCell>
        <mxCell id="e9RYPE7gmIMcIL6Fkuq9-60" value="Deploy Platform" style="text;html=1;strokeColor=none;fillColor=none;align=center;verticalAlign=middle;whiteSpace=wrap;rounded=0;" vertex="1" parent="1">
          <mxGeometry x="1221" y="524" width="100" height="20" as="geometry" />
        </mxCell>
        <mxCell id="e9RYPE7gmIMcIL6Fkuq9-61" value="Define Service API" style="rounded=1;whiteSpace=wrap;html=1;gradientColor=#b3b3b3;fillColor=#f5f5f5;strokeColor=#666666;" vertex="1" parent="1">
          <mxGeometry x="963" y="684" width="110" height="30" as="geometry" />
        </mxCell>
        <mxCell id="e9RYPE7gmIMcIL6Fkuq9-62" value="Build Docker Image" style="rounded=1;whiteSpace=wrap;html=1;gradientColor=#b3b3b3;fillColor=#f5f5f5;strokeColor=#666666;" vertex="1" parent="1">
          <mxGeometry x="963" y="730" width="110" height="30" as="geometry" />
        </mxCell>
        <mxCell id="e9RYPE7gmIMcIL6Fkuq9-63" value="Push Docker Image" style="rounded=1;whiteSpace=wrap;html=1;gradientColor=#b3b3b3;fillColor=#f5f5f5;strokeColor=#666666;" vertex="1" parent="1">
          <mxGeometry x="963" y="770" width="110" height="30" as="geometry" />
        </mxCell>
        <mxCell id="e9RYPE7gmIMcIL6Fkuq9-64" value="" style="edgeStyle=orthogonalEdgeStyle;rounded=0;orthogonalLoop=1;jettySize=auto;html=1;endArrow=open;endFill=0;strokeWidth=2;" edge="1" parent="1">
          <mxGeometry relative="1" as="geometry">
            <mxPoint x="1093" y="599" as="sourcePoint" />
            <mxPoint x="1195" y="599" as="targetPoint" />
          </mxGeometry>
        </mxCell>
        <mxCell id="e9RYPE7gmIMcIL6Fkuq9-65" value="Register Model Info" style="edgeLabel;html=1;align=center;verticalAlign=middle;resizable=0;points=[];" vertex="1" connectable="0" parent="e9RYPE7gmIMcIL6Fkuq9-64">
          <mxGeometry x="-0.2153" y="1" relative="1" as="geometry">
            <mxPoint y="-10" as="offset" />
          </mxGeometry>
        </mxCell>
        <mxCell id="e9RYPE7gmIMcIL6Fkuq9-67" value="" style="rounded=0;whiteSpace=wrap;html=1;" vertex="1" parent="1">
          <mxGeometry x="1440" y="514" width="150" height="106" as="geometry" />
        </mxCell>
        <mxCell id="e9RYPE7gmIMcIL6Fkuq9-70" value="Distribution System" style="rounded=1;whiteSpace=wrap;html=1;gradientColor=#b3b3b3;fillColor=#f5f5f5;strokeColor=#666666;" vertex="1" parent="1">
          <mxGeometry x="1460" y="560" width="110" height="30" as="geometry" />
        </mxCell>
        <mxCell id="e9RYPE7gmIMcIL6Fkuq9-71" value="Serving Infra" style="text;html=1;strokeColor=none;fillColor=none;align=center;verticalAlign=middle;whiteSpace=wrap;rounded=0;" vertex="1" parent="1">
          <mxGeometry x="1456" y="524" width="118" height="20" as="geometry" />
        </mxCell>
        <mxCell id="e9RYPE7gmIMcIL6Fkuq9-73" value="" style="edgeStyle=orthogonalEdgeStyle;rounded=0;orthogonalLoop=1;jettySize=auto;html=1;endArrow=open;endFill=0;strokeWidth=2;exitX=0.41;exitY=1;exitDx=0;exitDy=0;exitPerimeter=0;" edge="1" parent="1" source="e9RYPE7gmIMcIL6Fkuq9-3" target="e9RYPE7gmIMcIL6Fkuq9-50">
          <mxGeometry relative="1" as="geometry">
            <mxPoint x="500" y="820" as="sourcePoint" />
            <mxPoint x="545" y="883" as="targetPoint" />
            <Array as="points">
              <mxPoint x="486" y="918" />
            </Array>
          </mxGeometry>
        </mxCell>
        <mxCell id="e9RYPE7gmIMcIL6Fkuq9-74" value="Replay orders" style="edgeLabel;html=1;align=center;verticalAlign=middle;resizable=0;points=[];" vertex="1" connectable="0" parent="e9RYPE7gmIMcIL6Fkuq9-73">
          <mxGeometry x="0.036" y="4" relative="1" as="geometry">
            <mxPoint as="offset" />
          </mxGeometry>
        </mxCell>
        <mxCell id="e9RYPE7gmIMcIL6Fkuq9-75" value="" style="edgeStyle=orthogonalEdgeStyle;rounded=0;orthogonalLoop=1;jettySize=auto;html=1;endArrow=open;endFill=0;strokeWidth=2;" edge="1" parent="1" source="e9RYPE7gmIMcIL6Fkuq9-56">
          <mxGeometry relative="1" as="geometry">
            <mxPoint x="1338" y="598.5" as="sourcePoint" />
            <mxPoint x="1440" y="598.5" as="targetPoint" />
          </mxGeometry>
        </mxCell>
      </root>
    </mxGraphModel>
  </diagram>
</mxfile>
